Coordinates
version=1
nRows=29
nColumns=24
inDegrees=yes

Units are S.I. units (second, meters, Newtons, ...)
Angles are in degrees.

endheader
time	pelvis_tilt	pelvis_list	pelvis_rotation	pelvis_tx	pelvis_ty	pelvis_tz	hip_flexion_r	hip_adduction_r	hip_rotation_r	knee_angle_r	ankle_angle_r	subtalar_angle_r	mtp_angle_r	hip_flexion_l	hip_adduction_l	hip_rotation_l	knee_angle_l	ankle_angle_l	subtalar_angle_l	mtp_angle_l	lumbar_extension	lumbar_bending	lumbar_rotation
      1.14150000	      0.07990501	      0.40339334	     -1.25978820	     -0.06415054	      0.98019406	      0.34109719	    -19.82850593	      1.59983400	     -2.46119444	     -2.38297543	     16.67467672	     -0.01548966	      3.51184274	     20.48611235	      1.29676800	     -0.47022766	      6.01658510	     -4.90310345	     -6.60579254	      1.76894809	    -13.57784966	      4.97931534	      7.81144601
      1.14566667	      0.09883712	      0.57309817	     -1.26297151	     -0.05823515	      0.97952112	      0.34056901	    -19.89342140	      1.33986991	     -2.79678263	     -3.05914507	     16.91509718	      0.52662532	      3.65013885	     20.45824003	      1.56490999	     -0.23008471	      5.85574502	     -5.14205693	     -6.81471521	      1.85429273	    -13.55827266	      4.77643121	      7.85673223
      1.14983333	      0.15439266	      0.79284929	     -1.25355775	     -0.05227324	      0.97894529	      0.34004428	    -20.01630688	      1.03303323	     -3.09853984	     -3.69901868	     17.13711504	      0.98787818	      3.79808001	     20.40630044	      1.88806520	     -0.00389813	      5.59601458	     -5.46189881	     -7.06743050	      1.94682775	    -13.58984622	      4.49917712	      7.87305815
      1.15400000	      0.17880354	      1.01464235	     -1.24121068	     -0.04629476	      0.97836848	      0.33949926	    -20.08330116	      0.72226155	     -3.38684894	     -4.38668454	     17.33518513	      1.41078870	      3.95912223	     20.40334876	      2.21283742	      0.24178974	      5.24500800	     -5.82457501	     -7.38322963	      2.04825235	    -13.56860754	      4.21374152	      7.88777438
      1.15816667	      0.21195441	      1.26070463	     -1.22734951	     -0.04028373	      0.97784474	      0.33894900	    -20.14041033	      0.38409145	     -3.68322656	     -5.11798404	     17.52760687	      1.85290430	      4.14418215	     20.39546533	      2.56240247	      0.49757463	      4.83099808	     -6.25763910	     -7.77805099	      2.16367902	    -13.55074153	      3.89478422	      7.89336859
      1.16233333	      0.22970500	      1.52122621	     -1.20994062	     -0.03425229	      0.97734474	      0.33838326	    -20.16878254	      0.03057930	     -3.96035308	     -5.87450917	     17.67603634	      2.23925265	      4.34477300	     20.41940166	      2.92761583	      0.75033640	      4.33796787	     -6.73586445	     -8.22146507	      2.28716783	    -13.52017219	      3.56615923	      7.88632566
      1.16650000	      0.24621269	      1.79088817	     -1.18666862	     -0.02821369	      0.97688129	      0.33778887	    -20.17303184	     -0.33435593	     -4.24304399	     -6.67785463	     17.78808433	      2.60919140	      4.59040235	     20.45605701	      3.30506660	      1.02093724	      3.78125359	     -7.24746381	     -8.73566816	      2.43337316	    -13.48717759	      3.22534190	      7.87489051
      1.17066667	      0.24874175	      2.07165188	     -1.16576435	     -0.02215494	      0.97644394	      0.33719512	    -20.15512816	     -0.71065602	     -4.48072426	     -7.49478559	     17.86189382	      2.91308559	      4.83906443	     20.52497078	      3.69277543	      1.25472856	      3.15514118	     -7.80923018	     -9.27620357	      2.56996351	    -13.44036160	      2.87861677	      7.85380437
      1.17483333	      0.24805882	      2.35792086	     -1.13511067	     -0.01607804	      0.97604324	      0.33658936	    -20.11499013	     -1.09008382	     -4.71395996	     -8.35181349	     17.88674851	      3.17751674	      5.11218080	     20.60754380	      4.08857496	      1.49384540	      2.47668074	     -8.37670709	     -9.86151937	      2.70751975	    -13.37723703	      2.51408124	      7.82278408
      1.17900000	      0.23466716	      2.64955089	     -1.09982387	     -0.00999702	      0.97566509	      0.33596575	    -20.04435056	     -1.47374008	     -4.92236803	     -9.24250117	     17.86349561	      3.39558518	      5.41651561	     20.71674245	      4.49160978	      1.72805786	      1.74696668	     -8.95403981	    -10.48328109	      2.84348487	    -13.30906167	      2.14769181	      7.78532065
      1.18316667	      0.21531984	      2.94736135	     -1.06594661	     -0.00391074	      0.97532753	      0.33533869	    -19.95015122	     -1.86441679	     -5.10528780	    -10.16184481	     17.78816188	      3.56396288	      5.75473699	     20.84310214	      4.90007406	      1.94970513	      0.97263280	     -9.52714459	    -11.12392752	      2.97355463	    -13.23354308	      1.77933614	      7.74196193
      1.18733333	      0.19164515	      3.24139429	     -1.02478995	      0.00218146	      0.97502789	      0.33470130	    -19.83408814	     -2.24717399	     -5.26459783	    -11.11403782	     17.65367268	      3.66944953	      6.12346914	     20.98572178	      5.30672999	      2.15589801	      0.15552483	    -10.07781731	    -11.77437228	      3.09153417	    -13.14748608	      1.40606251	      7.69038242
      1.19150000	      0.31932198	      3.59698723	     -1.00195282	      0.00835847	      0.97497676	      0.33407401	    -19.90267535	     -2.70081449	     -5.44017660	    -12.01003013	     17.36628845	      3.76512224	      8.97309066	     20.91612512	      5.77840287	      2.39007976	     -0.57458819	    -10.73146252	    -12.63274093	      3.85380805	    -13.25262736	      0.95553643	      7.58724661
      1.19566667	      0.14593635	      3.82589800	     -0.93222263	      0.01437332	      0.97456943	      0.33341519	    -19.56196538	     -2.99736563	     -5.48599116	    -13.07465570	     17.11779999	      3.64455627	      9.17806068	     21.29732218	      6.11860815	      2.52827351	     -1.58961389	    -11.02745786	    -13.03224875	      3.87609524	    -12.98773904	      0.66382732	      7.56430314
      1.19983333	      0.13527352	      4.11692275	     -0.88300261	      0.02045821	      0.97442175	      0.33276037	    -19.40645895	     -3.36835532	     -5.56423184	    -14.10259334	     16.72790628	      3.50783023	     13.54782177	     21.43987511	      6.52724430	      2.74146590	     -2.48443180	    -11.44832720	    -13.74064731	      4.09289668	    -12.93615998	      0.29874166	      7.45983082
      1.20400000	      0.07254862	      4.39825680	     -0.84256169	      0.02654213	      0.97425617	      0.33210663	    -19.15479378	     -3.73510413	     -5.62024601	    -15.20896445	     16.34115602	      3.46803872	     13.62746985	     21.66082686	      6.91900141	      2.85890825	     -3.43921536	    -11.75272859	    -14.26714833	      4.06753394	    -12.80305127	     -0.06818123	      7.44077574
      1.20816667	      0.02385453	      4.67647380	     -0.80478597	      0.03260277	      0.97415681	      0.33146292	    -18.88422910	     -4.09594568	     -5.64252873	    -16.37104487	     15.89704404	      3.32069398	     13.74507643	     21.85400166	      7.30719629	      3.00104741	     -4.37668939	    -12.01983581	    -14.80299236	      4.03033813	    -12.69993393	     -0.41883309	      7.36987012
      1.21233333	     -0.01951937	      4.94616520	     -0.76684835	      0.03864623	      0.97410746	      0.33079558	    -18.59623246	     -4.44879674	     -5.64698357	    -17.56067393	     15.38534494	      3.17082171	     13.94704465	     22.04562491	      7.69158210	      3.15017512	     -5.33629409	    -12.20430883	    -15.37750143	      3.96773684	    -12.60654470	     -0.75813144	      7.30574904
      1.21650000	     -0.05581568	      5.21510197	     -0.73737541	      0.04468414	      0.97411091	      0.33015385	    -18.27912251	     -4.80116393	     -5.62964257	    -18.80791239	     14.80081569	      2.96039909	     14.19230721	     22.21821717	      8.07111809	      3.28070433	     -6.28295169	    -12.29828043	    -15.87246737	      3.89123087	    -12.52136920	     -1.10249284	      7.23563731
      1.22066667	     -0.04570256	      5.48420840	     -0.71050727	      0.05070760	      0.97422074	      0.32949755	    -17.99074856	     -5.15727704	     -5.61430783	    -20.06627359	     14.08026347	      2.68444137	     19.09623441	     22.33426043	      8.45796210	      3.42845519	     -7.23235142	    -12.27393224	    -16.39071519	      2.38787095	    -12.49989497	     -1.45043975	      7.13797202
      1.22483333	     -0.07906942	      5.73958448	     -0.69142208	      0.05671173	      0.97431829	      0.32885672	    -17.60658645	     -5.50007272	     -5.56350486	    -21.40714828	     13.32952804	      2.41923676	     19.15197126	     22.49535352	      8.82219074	      3.52192594	     -8.18341543	    -12.18118492	    -16.75414194	      2.37619576	    -12.42060347	     -1.77276307	      7.08870903
      1.22900000	     -0.09917938	      5.98575285	     -0.68568016	      0.06267682	      0.97446944	      0.32822612	    -17.19404835	     -5.83859531	     -5.48805619	    -22.80543735	     12.53824977	      2.14290131	     19.27527160	     22.63478081	      9.17615137	      3.60927442	     -9.12684202	    -12.01312791	    -17.13200104	      2.34095213	    -12.36292752	     -2.08397603	      7.02498050
      1.23316667	     -0.10452089	      6.23388368	     -0.69068331	      0.06862077	      0.97467543	      0.32761177	    -16.75766447	     -6.18395035	     -5.40572506	    -24.25677378	     11.67544299	      1.85091060	     19.45705770	     22.74102310	      9.52984162	      3.68860589	    -10.04013460	    -11.77396456	    -17.46928977	      2.28422688	    -12.31990432	     -2.40021102	      6.95778843
      1.23733333	     -0.10297710	      6.47292832	     -0.70320064	      0.07452878	      0.97491960	      0.32700684	    -16.28837651	     -6.52364752	     -5.30942364	    -25.75784738	     10.73946072	      1.53855338	     19.69487930	     22.82811586	      9.87246581	      3.75330566	    -10.93428465	    -11.45955872	    -17.76794664	      2.20662209	    -12.28973856	     -2.70240846	      6.89115062
      1.24150000	     -0.07729899	      6.69655441	     -0.72572666	      0.08038846	      0.97521843	      0.32641668	    -15.81154757	     -6.85170005	     -5.19823516	    -27.28061811	      9.69435767	      1.16677204	     24.58827410	     22.88988901	     10.19812927	      3.79423345	    -11.84203265	    -10.98612215	    -17.97758730	      0.50949472	    -12.30350476	     -2.98906647	      6.80270724
      1.24566667	     -0.03959773	      6.94005503	     -0.76088636	      0.08625421	      0.97558161	      0.32583806	    -15.30907983	     -7.20919492	     -5.09539717	    -28.86000129	      8.60276237	      0.84629044	     24.62189482	     22.88673642	     10.54112104	      3.84679358	    -12.63430273	    -10.60822617	    -18.23700115	      0.50434246	    -12.31213139	     -3.29266785	      6.74337347
      1.24983333	     -0.01527016	      7.16282612	     -0.80721080	      0.09204939	      0.97593592	      0.32529418	    -14.74666305	     -7.54610036	     -4.95772716	    -30.49254992	      7.48475399	      0.51066714	     24.69788474	     22.89581502	     10.85572334	      3.87020149	    -13.42378984	    -10.14350604	    -18.44030325	      0.48089891	    -12.31475425	     -3.57401009	      6.67410052
      1.25400000	      0.01635587	      7.37138406	     -0.86477676	      0.09779627	      0.97632819	      0.32476863	    -14.15833817	     -7.86950906	     -4.79273320	    -32.14996809	      6.30740813	      0.15033185	     24.83821199	     22.88669148	     11.15034158	      3.85797353	    -14.19369275	     -9.62494908	    -18.58765880	      0.42639229	    -12.32988893	     -3.83447034	      6.61069213
      1.25816667	      0.05420724	      7.58601954	     -0.92841503	      0.10350701	      0.97673930	      0.32426454	    -13.54125358	     -8.20665640	     -4.63954899	    -33.84570533	      5.08880272	     -0.19073712	     24.98235919	     22.83767530	     11.44785946	      3.85109942	    -14.89065219	     -9.08855276	    -18.71501329	      0.36427164	    -12.35464558	     -4.10049681	      6.52904589
